<?xml version="1.0" encoding="UTF-8" standalone="no"?>
<!-- Created with Inkscape (http://www.inkscape.org/) -->

<svg
   width="1023.9999"
   height="1023.9999"
   viewBox="0 0 270.93333 270.93333"
   version="1.1"
   id="svg1"
   xml:space="preserve"
   xmlns:xlink="http://www.w3.org/1999/xlink"
   xmlns="http://www.w3.org/2000/svg"
   xmlns:svg="http://www.w3.org/2000/svg"><defs
     id="defs1"><linearGradient
       id="linearGradient6"><stop
         style="stop-color:#ffffff;stop-opacity:1;"
         offset="0"
         id="stop5" /><stop
         style="stop-color:#e64598;stop-opacity:1;"
         offset="1"
         id="stop6" /></linearGradient><linearGradient
       xlink:href="#linearGradient6"
       id="linearGradient24"
       x1="135.46671"
       y1="65.574272"
       x2="135.46671"
       y2="205.35896"
       gradientUnits="userSpaceOnUse"
       spreadMethod="pad"
       gradientTransform="matrix(1.6632214,0,0,1.6632214,-89.844398,-89.915172)" /></defs><g
     id="layer1"><path
       id="path20"
       style="opacity:1;fill:url(#linearGradient24);stroke:#ffffff;stroke-width:0.22003;stroke-dasharray:none;stroke-opacity:1"
       d="m 79.117649,34.764608 c -33.257782,3.23e-4 -59.898248,26.986916 -59.897636,60.077986 0,1.229653 0.02577,2.443813 0.08165,3.645773 2.58e-4,0.0067 -2.91e-4,0.01348 0,0.01964 l 0.06563,18.690843 24.169584,-24.439846 0.01034,-0.327629 0.0016,-5.17e-4 c 1.374596,-18.962211 19.853214,-34.056075 36.324398,-33.968986 16.72775,0.08842 35.197765,15.764092 35.198375,35.769393 2.9e-4,20.005975 -16.299616,36.111825 -36.406053,36.224145 -1.462632,0.008 -3.404444,0.0269 -3.404444,0.0269 l -9.605098,0.21291 0.315743,22.52059 0.0057,1.37459 h 11.714014 c 0.472654,0.007 0.948845,0.0103 1.42782,0.0103 33.257788,5.8e-4 60.219258,-26.82515 60.219578,-59.916232 6.1e-4,-33.091698 -26.96116,-59.917854 -60.219578,-59.917273 z m 45.399811,0 v 0.910022 c 9.32219,5.686753 16.97093,13.840615 22.03173,23.5505 H 230.0025 L 251.71332,35.938696 V 34.764608 Z M 43.548761,110.5884 19.220013,132.82167 v 103.20559 l 24.328748,-22.48442 v -80.72117 z m 183.110789,7.03213 -74.84814,0.001 c -4.07935,18.48555 -16.73616,33.77254 -33.60932,41.52149 l -0.014,0.0103 c 0.8629,13.77156 4.35029,20.067 9.18291,29.89481 7.61608,10.58486 11.64274,14.18332 18.63917,19.73368 8.30508,5.31638 12.09761,6.31934 18.36012,8.57777 7.66485,2.62818 15.33931,2.04413 23.15828,2.13424 l 17.39532,-0.21342 18.19733,0.10335 20.61322,-22.10873 v -1.17409 h -66.45021 c -10.31261,-1.1344 -19.22426,-5.79691 -25.64133,-13.02142 -1.61482,-1.81801 -3.08174,-3.77457 -4.38681,-5.84254 -1.30509,-2.06796 -2.44799,-4.24823 -3.41788,-6.51175 -0.96994,-2.26347 -1.76571,-4.61052 -2.37505,-7.01507 -0.60935,-2.40459 -1.18399,-4.66519 -1.25574,-7.09001 -0.10462,-3.53683 -0.48396,-6.72556 -0.0899,-9.67796 0.22813,-1.70869 0.58896,-3.32798 1.07073,-4.86121 h 63.76097 l 21.7103,-23.28643 z" /></g></svg>
